<svg width="29" height="29" viewBox="0 0 29 29" fill="none" xmlns="http://www.w3.org/2000/svg">
<path d="M12.0833 16.9167C12.0833 17.5576 12.3379 18.1723 12.7912 18.6255C13.2444 19.0787 13.8591 19.3333 14.5 19.3333C15.1409 19.3333 15.7556 19.0787 16.2088 18.6255C16.6621 18.1723 16.9167 17.5576 16.9167 16.9167C16.9167 16.2757 16.6621 15.661 16.2088 15.2078C15.7556 14.7546 15.1409 14.5 14.5 14.5C13.8591 14.5 13.2444 14.7546 12.7912 15.2078C12.3379 15.661 12.0833 16.2757 12.0833 16.9167Z" stroke="#020202" stroke-width="2" stroke-linecap="round" stroke-linejoin="round"/>
<path d="M6.04288 9.66667H22.9583C23.3068 9.66663 23.6511 9.74194 23.9677 9.88743C24.2843 10.0329 24.5657 10.2452 24.7927 10.5096C25.0196 10.774 25.1866 11.0844 25.2823 11.4195C25.378 11.7545 25.4002 12.1063 25.3472 12.4507L23.8308 21.0927C23.6991 21.9487 23.2653 22.7293 22.6079 23.2932C21.9505 23.8571 21.1129 24.1669 20.2468 24.1667H8.75317C7.88727 24.1666 7.05 23.8566 6.39284 23.2928C5.73569 22.729 5.30207 21.9485 5.17046 21.0927L3.654 12.4507C3.60104 12.1063 3.62317 11.7545 3.71889 11.4195C3.81461 11.0844 3.98165 10.774 4.20856 10.5096C4.43547 10.2452 4.71687 10.0329 5.03349 9.88743C5.3501 9.74194 5.69443 9.66663 6.04288 9.66667Z" stroke="#020202" stroke-width="2" stroke-linecap="round" stroke-linejoin="round"/>
<path d="M20.5417 12.0833L18.125 4.83333" stroke="#020202" stroke-width="2" stroke-linecap="round" stroke-linejoin="round"/>
<path d="M8.45833 12.0833L10.875 4.83333" stroke="#020202" stroke-width="2" stroke-linecap="round" stroke-linejoin="round"/>
</svg>
